<svg width="49" height="39" viewBox="0 0 49 39" fill="none" xmlns="http://www.w3.org/2000/svg">
<path d="M32.7989 4.79978H16.5541L14.6918 0.703167C14.5964 0.493535 14.4428 0.315766 14.2492 0.191081C14.0555 0.0663969 13.8301 6.37684e-05 13.5998 0H10V2.39989H12.8271L18.5076 14.8961C18.6029 15.1057 18.7566 15.2835 18.9502 15.4082C19.1438 15.5329 19.3693 15.5992 19.5996 15.5993H29.1991C29.6791 15.5993 30.1135 15.3137 30.3019 14.8721L33.9017 6.4725C33.9806 6.29003 34.0128 6.0908 33.9954 5.89277C33.9781 5.69474 33.9117 5.50414 33.8023 5.33818C33.6929 5.17221 33.5439 5.03609 33.3687 4.9421C33.1935 4.8481 32.9977 4.79919 32.7989 4.79978Z" fill="black"/>
<path d="M20.1993 20.3991C21.1933 20.3991 21.9991 19.5933 21.9991 18.5992C21.9991 17.6052 21.1933 16.7993 20.1993 16.7993C19.2052 16.7993 18.3994 17.6052 18.3994 18.5992C18.3994 19.5933 19.2052 20.3991 20.1993 20.3991Z" fill="black"/>
<path d="M28.5992 20.3991C29.5933 20.3991 30.3991 19.5933 30.3991 18.5992C30.3991 17.6052 29.5933 16.7993 28.5992 16.7993C27.6052 16.7993 26.7993 17.6052 26.7993 18.5992C26.7993 19.5933 27.6052 20.3991 28.5992 20.3991Z" fill="black"/>
<path d="M0.048 38.28V36.184H0.528C0.64 36.0613 0.736 35.92 0.816 35.76C0.896 35.6 0.962667 35.3893 1.016 35.128C1.06933 34.8613 1.10933 34.52 1.136 34.104C1.168 33.6827 1.192 33.152 1.208 32.512L1.232 31.4H5.168V36.184H5.784V38.28H4.832V37H1V38.28H0.048ZM1.904 35.392C1.81333 35.696 1.696 35.96 1.552 36.184H4.192V32.224H2.168L2.16 32.496C2.14933 32.9973 2.13333 33.4267 2.112 33.784C2.096 34.1413 2.072 34.4507 2.04 34.712C2.008 34.968 1.96267 35.1947 1.904 35.392ZM9.23425 37.08C8.66892 37.08 8.18092 36.96 7.77025 36.72C7.35958 36.48 7.04492 36.144 6.82625 35.712C6.60758 35.28 6.49825 34.7787 6.49825 34.208C6.49825 33.632 6.60758 33.128 6.82625 32.696C7.04492 32.264 7.35958 31.928 7.77025 31.688C8.18092 31.4427 8.66892 31.32 9.23425 31.32C9.80492 31.32 10.2929 31.4427 10.6983 31.688C11.1089 31.928 11.4236 32.264 11.6423 32.696C11.8609 33.128 11.9703 33.6293 11.9703 34.2C11.9703 34.7707 11.8609 35.272 11.6423 35.704C11.4236 36.136 11.1089 36.4747 10.6983 36.72C10.2929 36.96 9.80492 37.08 9.23425 37.08ZM9.23425 36.256C9.79425 36.256 10.2183 36.072 10.5062 35.704C10.7943 35.3307 10.9383 34.8293 10.9383 34.2C10.9383 33.5653 10.7943 33.064 10.5062 32.696C10.2183 32.328 9.79425 32.144 9.23425 32.144C8.67425 32.144 8.25025 32.3307 7.96225 32.704C7.67425 33.072 7.53025 33.5733 7.53025 34.208C7.53025 34.8373 7.67425 35.336 7.96225 35.704C8.25025 36.072 8.67425 36.256 9.23425 36.256ZM13.3702 37V31.4H17.4582V32.224H14.3542V33.576H16.0262C16.3942 33.576 16.7142 33.648 16.9862 33.792C17.2635 33.9307 17.4769 34.1307 17.6262 34.392C17.7755 34.648 17.8502 34.952 17.8502 35.304C17.8502 35.6507 17.7755 35.952 17.6262 36.208C17.4769 36.4587 17.2662 36.6533 16.9942 36.792C16.7222 36.9307 16.4022 37 16.0342 37H13.3702ZM15.9222 34.376H14.3542V36.208H15.9222C16.2209 36.208 16.4502 36.1307 16.6102 35.976C16.7755 35.8213 16.8582 35.5973 16.8582 35.304C16.8582 35.0053 16.7702 34.776 16.5942 34.616C16.4235 34.456 16.1995 34.376 15.9222 34.376ZM22.8378 37L22.3098 35.632H19.8538L19.3258 37H18.3338L20.5898 31.4H21.6058L23.8618 37H22.8378ZM20.1658 34.824H21.9898L21.0778 32.464L20.1658 34.824ZM24.9324 37V31.4H27.5644C28.103 31.4 28.5244 31.528 28.8284 31.784C29.1377 32.0347 29.2924 32.3813 29.2924 32.824C29.2924 33.1227 29.2124 33.384 29.0524 33.608C28.8924 33.832 28.671 33.9973 28.3884 34.104C28.7297 34.2053 28.999 34.376 29.1964 34.616C29.399 34.8507 29.5004 35.1387 29.5004 35.48C29.5004 35.9493 29.3377 36.32 29.0124 36.592C28.687 36.864 28.231 37 27.6444 37H24.9324ZM27.3964 32.184H25.9164V33.768H27.3884C27.671 33.768 27.895 33.696 28.0604 33.552C28.231 33.408 28.3164 33.2133 28.3164 32.968C28.3164 32.7173 28.2337 32.5253 28.0684 32.392C27.9084 32.2533 27.6844 32.184 27.3964 32.184ZM27.4764 34.568H25.9164V36.216H27.5164C27.831 36.216 28.0684 36.144 28.2284 36C28.3884 35.856 28.4684 35.6613 28.4684 35.416C28.4684 35.1333 28.3777 34.9227 28.1964 34.784C28.015 34.64 27.775 34.568 27.4764 34.568ZM30.1611 36.216C30.3157 36.2 30.4544 36.1653 30.5771 36.112C30.6997 36.0587 30.8037 35.968 30.8891 35.84C30.9584 35.744 31.0117 35.616 31.0491 35.456C31.0917 35.2907 31.1264 35.0747 31.1531 34.808C31.1797 34.5413 31.1984 34.2053 31.2091 33.8C31.2251 33.3947 31.2384 32.904 31.2491 32.328L31.2651 31.4H35.4251V37H34.4251V32.224H32.2331L32.2251 32.472C32.2091 33.1493 32.1877 33.7173 32.1611 34.176C32.1344 34.6347 32.0971 35.0133 32.0491 35.312C32.0064 35.6107 31.9477 35.8533 31.8731 36.04C31.7984 36.2267 31.7051 36.3893 31.5931 36.528C31.4437 36.7147 31.2624 36.8507 31.0491 36.936C30.8357 37.016 30.5691 37.0613 30.2491 37.072L30.1611 36.216ZM37.1977 37V31.4H41.0537V32.224H38.2057V33.736H40.6937V34.544H38.2057V36.176H41.1097V37H37.1977ZM42.4358 37V31.4H43.4438V33.696H46.3318V31.4H47.3398V37H46.3318V34.52H43.4438V37H42.4358Z" fill="black"/>
</svg>
